HIERARCHY
ROOT Hips
{
	OFFSET 0.000000 0.000000 0.000000
	CHANNELS 6 Xposition Yposition Zposition Zrotation Yrotation Xrotation 
	JOINT LHipJoint
	{
		OFFSET 0.000000 0.000000 0.000000
		CHANNELS 3 Zrotation Yrotation Xrotation
		JOINT LeftUpLeg
		{
			OFFSET 8.178360 -10.767780 5.035740
			CHANNELS 3 Zrotation Yrotation Xrotation
			JOINT LeftLeg
			{
				OFFSET 14.688660 -40.356780 0.000000
				CHANNELS 3 Zrotation Yrotation Xrotation
				JOINT LeftFoot
				{
					OFFSET 15.373200 -42.237540 0.000000
					CHANNELS 3 Zrotation Yrotation Xrotation
					JOINT LeftToeBase
					{
						OFFSET 0.945840 -2.598660 13.935300
						CHANNELS 3 Zrotation Yrotation Xrotation
						End Site
						{
							OFFSET 0.000000 0.000000 0.000000
						}
					}
				}
			}
		}
	}
	JOINT RHipJoint
	{
		OFFSET 0.000000 0.000000 0.000000
		CHANNELS 3 Zrotation Yrotation Xrotation
		JOINT RightUpLeg
		{
			OFFSET -7.833120 -10.767780 5.035740
			CHANNELS 3 Zrotation Yrotation Xrotation
			JOINT RightLeg
			{
				OFFSET -15.255180 -41.913300 0.000000
				CHANNELS 3 Zrotation Yrotation Xrotation
				JOINT RightFoot
				{
					OFFSET -15.409560 -42.337380 0.000000
					CHANNELS 3 Zrotation Yrotation Xrotation
					JOINT RightToeBase
					{
						OFFSET -0.988380 -2.715540 14.178900
						CHANNELS 3 Zrotation Yrotation Xrotation
						End Site
						{
							OFFSET 0.000000 0.000000 0.000000
						}
					}
				}
			}
		}
	}
	JOINT LowerBack
	{
		OFFSET 0.000000 0.000000 0.000000
		CHANNELS 3 Zrotation Yrotation Xrotation
		JOINT Spine
		{
			OFFSET 0.169620 12.213540 -1.160280
			CHANNELS 3 Zrotation Yrotation Xrotation
			JOINT Spine1
			{
				OFFSET 0.340320 12.293100 -0.256500
				CHANNELS 3 Zrotation Yrotation Xrotation
				JOINT Neck
				{
					OFFSET 0.000000 0.000000 0.000000
					CHANNELS 3 Zrotation Yrotation Xrotation
					JOINT Neck1
					{
						OFFSET -0.325020 10.477440 1.032120
						CHANNELS 3 Zrotation Yrotation Xrotation
						JOINT Head
						{
							OFFSET 0.624420 10.568160 -0.743820
							CHANNELS 3 Zrotation Yrotation Xrotation
							End Site
							{
								OFFSET 0.000000 0.000000 0.000000
							}
						}
					}
				}
				JOINT LeftShoulder
				{
					OFFSET 0.000000 0.000000 0.000000
					CHANNELS 3 Zrotation Yrotation Xrotation
					JOINT LeftArm
					{
						OFFSET 20.174460 7.205340 -1.867260
						CHANNELS 3 Zrotation Yrotation Xrotation
						JOINT LeftForeArm
						{
							OFFSET 29.898000 -0.000000 -0.000000
							CHANNELS 3 Zrotation Yrotation Xrotation
							JOINT LeftHand
							{
								OFFSET 20.901360 -0.000000 -0.000000
								CHANNELS 3 Zrotation Yrotation Xrotation
								JOINT LeftFingerBase
								{
									OFFSET 0.000000 0.000000 0.000000
									CHANNELS 3 Zrotation Yrotation Xrotation
									JOINT LeftHandIndex1
									{
										OFFSET 4.291560 -0.000000 -0.000000
										CHANNELS 3 Zrotation Yrotation Xrotation
										End Site
										{
											OFFSET 0.000000 0.000000 0.000000
										}
									}
								}
								JOINT LThumb
								{
									OFFSET 0.000000 0.000000 0.000000
									CHANNELS 3 Zrotation Yrotation Xrotation
									End Site
									{
										OFFSET 0.000000 0.000000 0.000000
									}
								}
							}
						}
					}
				}
				JOINT RightShoulder
				{
					OFFSET 0.000000 0.000000 0.000000
					CHANNELS 3 Zrotation Yrotation Xrotation
					JOINT RightArm
					{
						OFFSET -18.819600 8.244300 -2.427900
						CHANNELS 3 Zrotation Yrotation Xrotation
						JOINT RightForeArm
						{
							OFFSET -31.451400 -0.000000 -0.000000
							CHANNELS 3 Zrotation Yrotation Xrotation
							JOINT RightHand
							{
								OFFSET -20.665020 -0.000000 -0.000000
								CHANNELS 3 Zrotation Yrotation Xrotation
								JOINT RightFingerBase
								{
									OFFSET 0.000000 0.000000 0.000000
									CHANNELS 3 Zrotation Yrotation Xrotation
									JOINT RightHandIndex1
									{
										OFFSET -3.735180 -0.000000 -0.000000
										CHANNELS 3 Zrotation Yrotation Xrotation
										End Site
										{
											OFFSET 0.000000 0.000000 0.000000
										}
									}
								}
								JOINT RThumb
								{
									OFFSET 0.000000 0.000000 0.000000
									CHANNELS 3 Zrotation Yrotation Xrotation
									End Site
									{
										OFFSET 0.000000 0.000000 0.000000
									}
								}
							}
						}
					}
				}
			}
		}
	}
}
MOTION
Frames:	7
Frame Time:	0.0333333
93.143466 106.902630 -75.525564 65.501354 -85.803249 -63.064144 -3.254952 2.352243 3.224036 -3.108039 -8.427788 -6.743834 -0.977813 5.961350 16.863144 0.384834 0.581789 7.662276 3.845900 -11.952400 -35.563800 1.270049 -1.580239 1.723180 -0.051787 10.539550 -0.047344 -1.014630 -8.475434 23.972507 0.498787 -4.182473 -0.654314 -1.096200 6.653400 -18.692400 0.959071 2.732707 8.586405 0.844645 3.747568 -0.104191 -2.399479 1.867667 -5.228951 -8.556126 1.017985 -19.783638 3.739460 3.060846 18.109096 3.934500 0.392800 13.939900 -6.675210 -1.407127 -1.685063 -82.369720 2.313021 5.943773 13.055378 -18.743680 -2.579222 -1.844653 -1.720450 6.414281 21.211763 13.835285 6.516200 -7.125000 0.000000 0.000000 -4.600300 46.909800 -0.217300 5.435297 1.459205 -1.432443 75.753909 -3.579863 5.473727 -17.958620 26.707822 -4.760638 0.482688 -0.097867 4.124202 -16.095382 7.469815 -2.231000 7.125000 0.000000 0.000000 7.450900 -22.162700 4.123700 
92.939604 107.202960 -71.823366 62.460212 -85.328920 -59.958074 -3.566238 2.260151 3.202511 -6.243894 -6.646964 -6.952216 -1.043861 5.954733 16.878304 -0.223488 2.880989 5.165277 3.517800 -11.489500 -33.948900 1.210507 -1.564392 1.705301 -1.810454 12.223565 0.331699 -1.198558 -8.780579 24.702544 1.169405 -6.839755 1.698646 -0.354900 3.827200 -10.591100 1.531720 2.545317 8.496216 0.839814 3.566327 -0.142147 -2.643347 1.798689 -5.195495 -8.301851 1.175664 -20.128898 3.200833 3.236927 18.572378 3.677700 0.388700 14.248600 -6.634470 -1.463491 -1.704898 -82.769057 1.900598 7.728041 13.454656 -19.264863 -2.736704 -1.906319 -2.102071 6.649030 21.426516 17.850105 8.336000 -7.125000 0.000000 0.000000 -5.447600 51.594300 -0.886900 5.440462 1.445589 -1.440431 76.035240 -3.778498 2.140465 -17.825535 26.548105 -4.689642 0.493810 -0.107056 4.517001 -16.394158 7.463693 -2.274800 7.125000 0.000000 0.000000 7.224500 -22.150600 3.998400 
92.760624 107.547576 -68.362644 59.999867 -84.349914 -57.449106 -3.878814 2.276954 3.277704 -9.296482 -6.317301 -6.083298 -1.284191 5.444850 15.519690 -0.543040 4.114074 3.822924 2.955200 -10.622200 -31.016200 1.152713 -1.536205 1.586836 -3.216761 13.661140 0.238234 -1.618913 -9.445674 26.421142 2.497690 -12.021443 3.297287 -0.043300 1.343700 -3.695100 1.199828 2.261394 8.276788 0.838805 3.130634 -0.099782 -2.323250 1.610236 -4.960166 -8.327154 1.352919 -20.366505 2.959291 3.538858 18.719223 3.614400 0.469200 14.346300 -6.606719 -1.492730 -1.707552 -82.999608 1.470416 8.988241 13.783198 -19.698105 -2.885352 -1.824148 -2.170954 6.761198 20.659725 18.412699 8.232400 -7.125000 0.000000 0.000000 -6.499100 52.103900 -1.140600 5.448008 1.440197 -1.434734 76.532293 -3.800068 -0.550501 -17.758891 26.466100 -4.653521 0.480992 -0.101332 4.492127 -16.040109 7.409207 -2.205500 7.125000 0.000000 0.000000 7.493400 -22.227000 4.136600 
92.693280 107.884908 -65.348466 56.337013 -84.160688 -53.782990 -4.093478 2.328302 3.453267 -10.706534 -5.687735 -5.370893 -1.493198 4.764916 13.755651 -0.299254 2.945355 3.572969 2.470300 -9.783700 -28.279100 1.186264 -1.495536 1.347824 -2.805264 15.488717 -0.234503 -2.220692 -10.341785 28.867181 4.372088 -19.020261 3.432079 -0.419600 -4.157800 11.521000 1.159974 2.243965 8.266560 1.035471 3.105461 -0.028727 -1.789077 1.596978 -4.795693 -8.497704 1.377096 -20.661576 2.635104 3.703665 18.919055 3.523700 0.456500 14.504000 -6.523729 -1.551037 -1.713739 -82.937636 1.028506 12.141349 14.267120 -20.365602 -3.121554 -1.855510 -2.181923 5.093829 21.836376 18.044775 8.591300 -7.125000 0.000000 0.000000 -5.094700 51.905100 -0.868100 5.472308 1.422409 -1.442614 76.608371 -4.148961 -0.983324 -17.775058 26.477244 -4.652517 0.508460 -0.091337 3.475977 -16.505804 7.425548 -2.278500 7.125000 0.000000 0.000000 7.135400 -22.193100 3.941400 
92.763660 108.080880 -62.862738 53.780694 -83.772760 -51.230919 -4.244283 2.227523 3.556976 -11.980905 -3.674531 -5.921174 -1.506329 4.505497 13.273685 0.364170 -0.446733 3.461190 2.499200 -9.836500 -28.449000 1.189772 -1.308934 1.154999 -2.146456 15.095354 -2.228291 -2.926790 -11.387264 32.617965 4.538556 -19.012485 -0.155514 -2.074700 -9.019900 25.857700 0.271210 2.193294 8.516670 1.119890 2.918518 -0.046999 -0.988902 1.515271 -4.998576 -8.110537 1.514223 -20.284878 2.303902 3.735201 18.733198 3.272500 0.487800 14.330600 -6.386132 -1.616629 -1.723578 -82.259665 1.023067 14.870813 15.204691 -21.737651 -3.610105 -1.682840 -2.255361 4.168211 20.957214 18.295458 8.295800 -7.125000 0.000000 0.000000 -6.206700 52.036600 -1.078700 5.482959 1.398618 -1.452653 77.208140 -4.432791 -0.662319 -17.696526 26.368867 -4.616573 0.467775 -0.119958 4.571841 -15.784724 7.917634 -2.320100 7.125000 0.000000 0.000000 7.673200 -21.694900 4.331300 
92.865588 108.182808 -60.755604 50.560982 -83.001623 -47.949191 -4.430085 2.115922 3.556657 -13.356201 -3.352128 -6.165533 -1.502225 4.493947 13.352549 0.588285 -1.809720 3.201137 2.173000 -9.217600 -26.478300 1.191347 -1.084889 1.029254 -1.104248 14.386039 -4.359790 -3.571668 -12.271455 36.262475 3.074615 -13.561198 -3.124675 -1.036800 -6.476200 18.172700 -0.774160 2.036485 8.580355 1.091058 2.567554 -0.033766 -0.295291 1.349852 -4.945248 -8.140693 1.436836 -20.380567 2.548476 3.612391 19.018010 3.377600 0.450800 14.501400 -6.272942 -1.642605 -1.735675 -81.179827 0.823590 17.259491 16.233737 -23.219975 -4.171988 -1.613768 -2.258099 3.022807 21.331804 18.019536 8.322300 -7.125000 0.000000 0.000000 -5.761400 51.782500 -0.964900 5.454252 1.422111 -1.451620 78.022391 -4.390930 0.232006 -17.604861 26.240966 -4.574369 0.438093 -0.147518 5.974074 -15.380806 8.266344 -2.359000 7.125000 0.000000 0.000000 7.973600 -21.335700 4.569600 
92.945064 108.271998 -58.840800 43.708464 -82.547023 -41.322027 -4.627585 1.985077 3.496765 -13.984662 -4.113228 -6.370478 -1.384061 4.967964 14.679690 0.614615 -2.033155 2.188721 1.922000 -8.701700 -24.866400 1.203749 -0.919539 0.957345 1.362373 12.987777 -6.241450 -4.081391 -12.846805 38.928312 1.068286 -6.261154 -3.663477 -0.172600 -2.676400 7.379000 -1.175673 1.738537 8.975886 1.249122 2.128971 -0.040411 0.428308 1.119310 -5.101268 -8.626883 1.354259 -20.362100 3.072700 3.627203 19.418816 3.728000 0.438500 14.689400 -6.171767 -1.644323 -1.753322 -80.541382 0.755581 18.049469 17.209787 -24.566006 -4.712630 -1.591318 -2.293683 2.500640 21.899788 18.383071 8.702600 -7.125000 0.000000 0.000000 -5.304500 52.289900 -0.954100 5.434758 1.463576 -1.451175 78.701197 -4.431815 1.321570 -17.552494 26.150946 -4.548242 0.413050 -0.163701 6.749354 -14.982741 8.530532 -2.369100 7.125000 0.000000 0.000000 8.268300 -21.070600 4.792100 
